<svg width="1178" height="256" viewBox="0 0 1178 256" fill="none" xmlns="http://www.w3.org/2000/svg">
<path fill-rule="evenodd" clip-rule="evenodd" d="M114.296 0.488755C109.167 -0.0687301 93.1879 12.4166 84.4459 19.8995C83.629 20.5987 83.7306 21.8832 84.6436 22.4516C93.7225 28.1044 109.38 37.8311 116.571 42.221C117.635 42.8707 118.985 42.0998 118.985 40.8544V29.7208C118.985 28.8285 119.716 28.1077 120.609 28.1246C137.692 28.4489 152.772 30.5546 164.514 33.6772C165.709 33.995 166.073 35.4907 165.177 36.3416L160.685 40.6066C160.254 41.016 159.632 41.1522 159.066 40.9696C150.353 38.16 140.15 36.5911 127.468 36.4696C126.582 36.4611 125.862 37.1791 125.862 38.0637V43.3906C125.862 44.2753 126.582 44.9915 127.468 45.0004C145.677 45.1843 157.779 48.5103 167.589 53.8685C176.843 58.9235 184.292 65.8919 193.114 74.533L198.04 79.8279C198.866 80.7156 200.34 80.407 200.729 79.2592C204.068 69.4171 210.065 51.3245 210.952 45.1243C211.184 43.4991 211.517 42.0075 211.818 40.66C213.085 34.9797 213.781 31.8623 203.979 32.107C196.012 32.3059 184.124 40.8645 176.49 47.8303C175.952 48.3215 175.154 48.397 174.53 48.0197C173.6 47.4571 172.654 46.9118 171.689 46.3847C171.364 46.2075 171.038 46.0324 170.71 45.8596C169.72 45.3384 169.513 43.9959 170.324 43.226L181.325 32.7796C182.182 31.9652 181.891 30.5355 180.784 30.1196L176.801 28.6244C163.109 23.4845 143.341 20.0063 120.572 19.5921C119.693 19.5761 118.985 18.8626 118.985 17.9854V9.2555C118.985 8.98662 118.993 8.68698 119.002 8.36505C119.079 5.54714 119.202 1.02213 114.296 0.488755ZM39.4245 17.449C38.7109 16.9621 38.512 15.9982 38.9746 15.2692L41.8859 10.6819C42.3486 9.95293 43.3065 9.72103 44.0521 10.1575L165.823 81.4363C165.961 81.5172 166.111 81.577 166.267 81.6136L201.84 89.9715C202.379 90.0981 202.945 89.9384 203.338 89.5489L255.85 37.4775C256.46 36.8724 257.44 36.8555 258.071 37.4391L262.074 41.1433C262.705 41.7269 262.763 42.7034 262.205 43.357L206.239 108.944C205.852 109.397 205.244 109.599 204.662 109.467L159.416 99.1925C159.22 99.1478 159.033 99.0666 158.867 98.9531L102.936 60.7872C102.391 60.4159 101.675 60.4147 101.13 60.7842L63.6672 86.1681C63.3873 86.3578 63.1739 86.6308 63.0615 86.9495C62.9648 87.2237 62.8706 87.4971 62.7791 87.7694C62.2337 89.3922 61.797 90.9354 61.4693 92.39C61.1802 93.6734 62.5404 94.6028 63.6875 93.9559L98.9635 74.0607C99.7126 73.6382 100.662 73.881 101.116 74.6111L103.992 79.2413C104.445 79.9713 104.241 80.9286 103.529 81.4109L47.221 119.564C46.1555 120.286 44.7154 119.523 44.7162 118.238L44.7194 113.208C44.7252 104.146 46.6051 90.2853 50.7762 76.079C51.4575 73.7588 52.2033 71.4171 53.0169 69.0752C53.0436 68.9983 53.0645 68.9195 53.0793 68.8395C53.3449 67.4075 53.6384 65.9485 53.9605 64.4694C54.2973 62.9229 52.4811 61.8621 51.3799 63.0004C50.1744 64.2464 48.9814 65.5607 47.8019 66.9388C41.0573 74.8186 34.95 84.5499 29.6356 94.8536C20.5925 112.387 15.0562 125.425 11.6799 138.309C11.4303 139.261 12.1066 140.201 13.0889 140.284L31.9593 141.881C32.8871 141.959 33.5533 142.807 33.4084 143.726L31.9774 152.8C30.9113 161.066 30.149 174.814 31.3656 188.918C32.4822 201.864 35.2222 214.536 40.4722 223.601C40.7525 224.086 41.2737 224.375 41.8336 224.375H49.8697C49.9421 224.375 49.9948 224.307 49.9763 224.237V224.237C49.9607 224.178 49.9958 224.118 50.0547 224.102L106.524 209.165C107.106 209.012 107.553 208.545 107.681 207.958L116.414 167.911C116.535 167.354 116.354 166.78 115.941 166.387C107.218 158.073 94.1424 139.548 94.1424 114.644V112.989C94.1424 112.379 94.4888 111.822 95.036 111.552L96.5221 110.819C108.585 104.869 143.97 98.7346 195.304 116.031L197.636 116.816C198.428 117.083 198.882 117.913 198.679 118.722L198.083 121.106C197.414 123.777 195.928 128.506 194.43 133.019C194.091 134.042 194.833 135.104 195.911 135.146C200.44 135.318 205.496 135.657 210.053 136.107C213.895 136.487 217.516 136.959 220.232 137.509C221.559 137.777 222.865 138.102 223.919 138.515C224.422 138.712 225.121 139.026 225.769 139.522C226.298 139.928 227.722 141.174 227.722 143.337C227.722 143.643 227.748 144.13 227.783 144.777V144.778V144.778C228.014 149.064 228.621 160.358 224.481 172.41C219.763 186.147 208.988 200.824 185.651 209.007C185.111 209.196 184.701 209.655 184.589 210.216L179.636 234.946C179.544 235.405 179.256 235.8 178.847 236.029L147.661 253.472C146.733 253.992 145.564 253.481 145.317 252.447L137.777 220.92C137.6 220.178 137.971 219.415 138.664 219.094L140.646 218.179L140.963 218.033L141.859 217.622C142.636 217.266 143.756 216.755 145.136 216.13C147.894 214.881 151.691 213.177 155.843 211.359C164.071 207.755 173.942 203.592 179.816 201.705L186.571 199.534C204.66 192.11 212.731 180.325 216.401 169.643C217.423 166.667 218.111 163.772 218.567 161.047C218.727 160.091 217.977 159.236 217.005 159.236H211.412C207.826 159.236 206.018 155.886 203.922 152C202.486 149.338 200.914 146.425 198.541 144.163C198.277 143.911 197.928 143.772 197.563 143.754C193.84 143.578 190.409 143.508 187.86 143.569L181.678 143.718C181.661 143.718 181.649 143.702 181.655 143.686V143.686C181.66 143.67 181.648 143.654 181.632 143.654C162.622 143.578 152.971 137.705 144.536 132.573C138.646 128.989 133.349 125.767 125.873 125.131C111.534 123.913 109.847 134.588 110.65 145.01C110.667 145.233 110.732 145.451 110.841 145.647C115.285 153.683 120.561 159.378 123.986 162.102L125.283 163.134C125.76 163.514 125.981 164.132 125.851 164.728L115.293 213.145C115.243 213.375 115.244 213.614 115.297 213.844L124.414 253.569C124.665 254.665 123.738 255.672 122.623 255.513L57.3621 246.203C56.7655 246.118 56.267 245.707 56.0716 245.137L52.2434 233.988C52.0211 233.341 51.4114 232.906 50.726 232.906H37.2161C36.6897 232.906 36.1969 232.648 35.8972 232.216L35.1017 231.068C27.461 220.048 24.1175 204.296 22.8542 189.651C21.8394 177.885 22.1334 166.384 22.8676 157.746C22.943 156.858 22.287 156.074 21.3978 155.999L1.4691 154.312C0.509813 154.231 -0.162288 153.33 0.0342427 152.389L0.648999 149.445C3.57362 135.441 11.04 112.277 22.0408 90.9479C27.5474 80.2714 34.002 69.932 41.3078 61.3965C48.4428 53.0605 56.5816 46.2201 65.6618 42.6295C65.9613 42.511 66.2203 42.3089 66.4058 42.0459C67.0571 41.1228 67.7254 40.2178 68.411 39.333C68.9855 38.5915 68.8302 37.5147 68.0551 36.9857L39.4245 17.449Z" fill="black"/>
<path d="M326.588 71.5293H407.261C428.773 71.5293 439.53 80.9411 439.53 99.7646V111.865C439.53 118.373 437.916 123.751 434.689 128C437.916 132.249 439.53 137.627 439.53 144.134V156.235C439.53 175.059 428.773 184.47 407.261 184.47H326.588V71.5293ZM350.79 140.101V160.269H407.261C412.639 160.269 415.328 158.924 415.328 156.235V144.134C415.328 141.445 412.639 140.101 407.261 140.101H350.79ZM350.79 95.731V115.899H407.261C412.639 115.899 415.328 114.555 415.328 111.865V99.7646C415.328 97.0755 412.639 95.731 407.261 95.731H350.79Z" fill="black"/>
<path d="M528.998 95.731H480.595C475.217 95.731 472.528 97.0755 472.528 99.7646V156.235C472.528 158.924 475.217 160.269 480.595 160.269H528.998C534.376 160.269 537.066 158.924 537.066 156.235V99.7646C537.066 97.0755 534.376 95.731 528.998 95.731ZM480.595 71.5293H528.998C550.511 71.5293 561.267 80.9411 561.267 99.7646V156.235C561.267 175.059 550.511 184.47 528.998 184.47H480.595C459.082 184.47 448.326 175.059 448.326 156.235V99.7646C448.326 80.9411 459.082 71.5293 480.595 71.5293Z" fill="black"/>
<path d="M594.265 108.316V184.47H570.064V71.5293H594.991L658.803 147.603V71.5293H683.005V184.47H658.158L594.265 108.316Z" fill="black"/>
<path d="M716.003 140.101V184.47H691.801V71.5293H716.003V115.899H742.706L779.895 71.5293H811.438L764.084 128L811.438 184.47H779.895L742.706 140.101H716.003Z" fill="black"/>
<path d="M819.046 71.5293H899.719C921.231 71.5293 931.987 80.9411 931.987 99.7646V111.865C931.987 118.373 930.374 123.751 927.147 128C930.374 132.249 931.987 137.627 931.987 144.134V156.235C931.987 175.059 921.231 184.47 899.719 184.47H819.046V71.5293ZM843.248 140.101V160.269H899.719C905.097 160.269 907.786 158.924 907.786 156.235V144.134C907.786 141.445 905.097 140.101 899.719 140.101H843.248ZM843.248 95.731V115.899H899.719C905.097 115.899 907.786 114.555 907.786 111.865V99.7646C907.786 97.0755 905.097 95.731 899.719 95.731H843.248Z" fill="black"/>
<path d="M1022.83 95.731H974.43C969.052 95.731 966.362 97.0755 966.362 99.7646V156.235C966.362 158.924 969.052 160.269 974.43 160.269H1022.83C1028.21 160.269 1030.9 158.924 1030.9 156.235V99.7646C1030.9 97.0755 1028.21 95.731 1022.83 95.731ZM974.43 71.5293H1022.83C1044.35 71.5293 1055.1 80.9411 1055.1 99.7646V156.235C1055.1 175.059 1044.35 184.47 1022.83 184.47H974.43C952.917 184.47 942.161 175.059 942.161 156.235V99.7646C942.161 80.9411 952.917 71.5293 974.43 71.5293Z" fill="black"/>
<path d="M1132.66 95.731V184.47H1108.46V95.731H1064.09V71.5293H1177.03V95.731H1132.66Z" fill="black"/>
</svg>
